<svg width="28" height="28" viewBox="0 0 28 28" fill="none" xmlns="http://www.w3.org/2000/svg">
<rect width="28" height="28" fill="#6F6F6F"/>
<path d="M-5131 -2076C-5131 -2077.1 -5130.1 -2078 -5129 -2078H14378C14379.1 -2078 14380 -2077.1 14380 -2076V3060C14380 3061.1 14379.1 3062 14378 3062H-5129C-5130.1 3062 -5131 3061.1 -5131 3060V-2076Z" fill="#404040"/>
<path d="M-4592 -252C-4592 -253.105 -4591.1 -254 -4590 -254H7242C7243.1 -254 7244 -253.105 7244 -252V1984C7244 1985.1 7243.1 1986 7242 1986H-4590C-4591.1 1986 -4592 1985.1 -4592 1984V-252Z" fill="#404040"/>
<rect width="1440" height="1024" transform="translate(-1100 -174)" fill="white"/>
<g filter="url(#filter0_d_190_2117)">
<rect x="-24" y="-24" width="300" height="439" rx="24" fill="white" shape-rendering="crispEdges"/>
<g clip-path="url(#clip0_190_2117)">
<path d="M21.7983 11.7894C21.4065 10.4385 20.6937 9.20245 19.7207 8.18669C18.7477 7.17092 17.5434 6.40563 16.2106 5.95612C14.8938 5.57283 13.5097 5.47865 12.1532 5.68001C10.7966 5.88138 9.49958 6.37354 8.35091 7.12278C8.25639 7.2175 8.13787 7.28469 8.00805 7.31714C7.87824 7.3496 7.74204 7.34609 7.61407 7.30699C7.35607 7.22341 7.12362 7.07549 6.93863 6.87717C6.80397 6.63419 6.76042 6.35114 6.81582 6.07892C6.85101 5.94826 6.9128 5.82628 6.99733 5.72062C7.08186 5.61495 7.1873 5.52789 7.30705 5.46489C10.5614 3.56138 13.7544 3.07015 16.8246 4.05261C18.3361 4.55536 19.7161 5.38974 20.8635 6.49466C22.0109 7.59959 22.8968 8.9471 23.4562 10.4386H27.5702C26.729 7.12031 24.7011 4.22526 21.8701 2.30077C19.039 0.376283 15.601 -0.444251 12.206 -0.00569532C8.81093 0.43286 5.69423 2.10011 3.44514 4.68083C1.19605 7.26155 -0.0295595 10.5769 3.54369e-05 14C3.54369e-05 14.5526 0.0614389 15.0438 0.0614389 15.5965H5.28074C5.48007 15.5852 5.67768 15.6389 5.8438 15.7497C6.00992 15.8604 6.13556 16.0222 6.20179 16.2105C6.60284 17.5568 7.31887 18.7881 8.29059 19.8025C9.2623 20.817 10.4617 21.5853 11.7895 22.0438C13.1063 22.4271 14.4903 22.5213 15.8469 22.3199C17.2035 22.1186 18.5005 21.6264 19.6492 20.8772C19.7437 20.7825 19.8622 20.7153 19.992 20.6828C20.1218 20.6504 20.258 20.6539 20.386 20.693C20.644 20.7765 20.8765 20.9245 21.0614 21.1228C21.1961 21.3658 21.2397 21.6488 21.1842 21.921C21.1491 22.0517 21.0873 22.1737 21.0027 22.2793C20.9182 22.385 20.8128 22.4721 20.693 22.5351C18.8421 23.7805 16.6608 24.4434 14.4299 24.4386C13.3272 24.4303 12.2314 24.2649 11.1755 23.9473C9.65762 23.4566 8.27154 22.6264 7.12247 21.5199C5.9734 20.4134 5.09156 19.0596 4.5439 17.5614H0.491263C1.37895 20.8251 3.41814 23.6571 6.23189 25.5339C9.04565 27.4107 12.4437 28.2054 15.798 27.7712C19.1523 27.3369 22.2359 25.703 24.4789 23.1715C26.722 20.64 27.9727 17.3821 28 14C28.0115 13.4875 27.991 12.9748 27.9386 12.4649H22.7807C22.5714 12.4511 22.3696 12.381 22.1967 12.2621C22.0238 12.1433 21.8862 11.98 21.7983 11.7894Z" fill="#100A42"/>
<path d="M14.0594 20.1247C15.2682 20.1131 16.4466 19.744 17.4461 19.064C18.4455 18.3839 19.2214 17.4233 19.676 16.3031C20.1305 15.183 20.2435 13.9533 20.0005 12.7691C19.7576 11.5849 19.1696 10.499 18.3107 9.6483C17.4518 8.79759 16.3604 8.22006 15.1739 7.98846C13.9874 7.75686 12.7589 7.88154 11.6432 8.34681C10.5274 8.81208 9.57424 9.59712 8.90379 10.6031C8.23333 11.609 7.87554 12.7908 7.87549 13.9997C7.87545 14.809 8.03581 15.6104 8.3473 16.3573C8.65878 17.1043 9.11522 17.7822 9.69023 18.3517C10.2652 18.9212 10.9474 19.3712 11.6974 19.6755C12.4473 19.9798 13.2501 20.1325 14.0594 20.1247Z" fill="white"/>
</g>
</g>
<path d="M-4590 -253H7242V-255H-4590V-253ZM7243 -252V1984H7245V-252H7243ZM7242 1985H-4590V1987H7242V1985ZM-4591 1984V-252H-4593V1984H-4591ZM-4590 1985C-4590.55 1985 -4591 1984.55 -4591 1984H-4593C-4593 1985.66 -4591.66 1987 -4590 1987V1985ZM7243 1984C7243 1984.55 7242.55 1985 7242 1985V1987C7243.66 1987 7245 1985.66 7245 1984H7243ZM7242 -253C7242.55 -253 7243 -252.552 7243 -252H7245C7245 -253.657 7243.66 -255 7242 -255V-253ZM-4590 -255C-4591.66 -255 -4593 -253.657 -4593 -252H-4591C-4591 -252.552 -4590.55 -253 -4590 -253V-255Z" fill="white" fill-opacity="0.1"/>
<path d="M-5129 -2077H14378V-2079H-5129V-2077ZM14379 -2076V3060H14381V-2076H14379ZM14378 3061H-5129V3063H14378V3061ZM-5130 3060V-2076H-5132V3060H-5130ZM-5129 3061C-5129.55 3061 -5130 3060.55 -5130 3060H-5132C-5132 3061.66 -5130.66 3063 -5129 3063V3061ZM14379 3060C14379 3060.55 14378.6 3061 14378 3061V3063C14379.7 3063 14381 3061.66 14381 3060H14379ZM14378 -2077C14378.6 -2077 14379 -2076.55 14379 -2076H14381C14381 -2077.66 14379.7 -2079 14378 -2079V-2077ZM-5129 -2079C-5130.66 -2079 -5132 -2077.66 -5132 -2076H-5130C-5130 -2076.55 -5129.55 -2077 -5129 -2077V-2079Z" fill="white" fill-opacity="0.1"/>
<defs>
<filter id="filter0_d_190_2117" x="-44" y="-40" width="340" height="479" filterUnits="userSpaceOnUse" color-interpolation-filters="sRGB">
<feFlood flood-opacity="0" result="BackgroundImageFix"/>
<feColorMatrix in="SourceAlpha" type="matrix" values="0 0 0 0 0 0 0 0 0 0 0 0 0 0 0 0 0 0 127 0" result="hardAlpha"/>
<feOffset dy="4"/>
<feGaussianBlur stdDeviation="10"/>
<feComposite in2="hardAlpha" operator="out"/>
<feColorMatrix type="matrix" values="0 0 0 0 0 0 0 0 0 0 0 0 0 0 0 0 0 0 0.1 0"/>
<feBlend mode="normal" in2="BackgroundImageFix" result="effect1_dropShadow_190_2117"/>
<feBlend mode="normal" in="SourceGraphic" in2="effect1_dropShadow_190_2117" result="shape"/>
</filter>
<clipPath id="clip0_190_2117">
<rect width="28" height="28" fill="white"/>
</clipPath>
</defs>
</svg>
